<svg xmlns="http://www.w3.org/2000/svg" xmlns:xlink="http://www.w3.org/1999/xlink" width="400" zoomAndPan="magnify" viewBox="0 0 300 299.999988" height="400" preserveAspectRatio="xMidYMid meet" version="1.0"><defs><clipPath id="id1"><path d="M 78 34 L 232.777344 34 L 232.777344 258 L 78 258 Z M 78 34 " clip-rule="nonzero"/></clipPath><clipPath id="id2"><path d="M 78 37 L 232.777344 37 L 232.777344 258 L 78 258 Z M 78 37 " clip-rule="nonzero"/></clipPath><clipPath id="id3"><path d="M 118 128 L 232.777344 128 L 232.777344 258 L 118 258 Z M 118 128 " clip-rule="nonzero"/></clipPath><clipPath id="id4"><path d="M 67.214844 47 L 211 47 L 211 262 L 67.214844 262 Z M 67.214844 47 " clip-rule="nonzero"/></clipPath></defs><g clip-path="url(#id1)"><path fill="#dcf1f9" d="M 78.6875 50.953125 L 101.4375 37.929688 C 102.433594 37.207031 103.5 36.59375 104.632812 36.101562 L 104.96875 35.910156 L 104.984375 35.941406 C 111.101562 33.453125 119.007812 34.351562 127.632812 39.324219 L 197.707031 79.742188 C 216.976562 90.855469 232.738281 118.136719 232.738281 140.367188 L 232.738281 221.203125 C 232.738281 232.042969 228.972656 239.730469 222.894531 243.503906 L 222.953125 243.609375 L 197.667969 257.921875 L 183.453125 233.191406 L 127.632812 200.996094 C 108.371094 189.878906 92.601562 162.597656 92.601562 140.371094 L 92.601562 75.160156 Z M 78.6875 50.953125 " fill-opacity="1" fill-rule="nonzero"/></g><g clip-path="url(#id2)"><path fill="#cce6f2" d="M 78.6875 50.953125 L 103.039062 45.246094 C 104.035156 44.523438 109.007812 44.539062 110.140625 44.042969 L 111.949219 43.324219 L 115.199219 42.71875 C 121.316406 40.234375 119.007812 34.347656 127.632812 39.324219 L 197.707031 79.742188 C 216.976562 90.855469 232.738281 118.136719 232.738281 140.367188 L 232.738281 221.203125 C 232.738281 232.042969 228.972656 239.730469 222.894531 243.503906 L 222.953125 243.609375 L 197.667969 257.921875 L 183.453125 233.191406 L 127.632812 200.996094 C 108.371094 189.878906 92.601562 162.597656 92.601562 140.371094 L 92.601562 75.160156 Z M 78.6875 50.953125 " fill-opacity="1" fill-rule="nonzero"/></g><g clip-path="url(#id3)"><path fill="#bfd9e8" d="M 231.398438 128.722656 C 232.25 132.679688 232.734375 136.597656 232.734375 140.367188 L 232.734375 221.203125 C 232.734375 232.042969 228.96875 239.730469 222.890625 243.503906 L 222.949219 243.609375 L 197.664062 257.921875 L 183.445312 233.191406 L 127.628906 200.996094 C 124.355469 199.109375 121.191406 196.722656 118.183594 194 Z M 231.398438 128.722656 " fill-opacity="1" fill-rule="nonzero"/></g><path fill="#ffffff" d="M 173.621094 93.695312 C 192.886719 104.808594 208.65625 132.089844 208.65625 154.320312 L 208.65625 235.15625 C 208.65625 257.386719 192.886719 266.480469 173.621094 255.363281 L 103.550781 214.945312 C 84.285156 203.832031 68.515625 176.550781 68.515625 154.320312 L 68.515625 73.484375 C 68.515625 51.253906 84.285156 42.164062 103.550781 53.277344 Z M 173.621094 93.695312 " fill-opacity="1" fill-rule="nonzero"/><path fill="#5bc0d8" d="M 68.519531 73.484375 C 68.519531 51.253906 84.285156 42.164062 103.550781 53.277344 L 173.621094 93.695312 C 192.890625 104.808594 208.65625 132.089844 208.65625 154.320312 L 208.65625 235.15625 C 208.65625 257.386719 192.890625 266.480469 173.621094 255.363281 " fill-opacity="0.098" fill-rule="nonzero"/><g clip-path="url(#id4)"><path fill="#ffffff" d="M 189.183594 261.550781 L 189.1875 261.550781 C 201.890625 261.550781 210.097656 251.191406 210.097656 235.15625 L 210.097656 154.320312 C 210.097656 131.574219 194.058594 103.816406 174.34375 92.445312 L 104.273438 52.027344 C 98.59375 48.75 93.113281 47.089844 87.984375 47.089844 C 75.28125 47.089844 67.070312 57.453125 67.070312 73.484375 L 67.070312 154.320312 C 67.070312 177.070312 83.113281 204.824219 102.828125 216.199219 L 172.898438 256.613281 C 178.578125 259.890625 184.054688 261.550781 189.183594 261.550781 Z M 87.984375 49.972656 C 92.597656 49.972656 97.589844 51.503906 102.824219 54.519531 L 172.898438 94.9375 C 191.816406 105.851562 207.210938 132.488281 207.210938 154.316406 L 207.210938 235.152344 C 207.210938 249.652344 200.304688 258.660156 189.1875 258.660156 L 189.183594 258.660156 C 184.570312 258.660156 179.578125 257.128906 174.34375 254.113281 L 104.273438 213.691406 C 85.355469 202.78125 69.960938 176.144531 69.960938 154.316406 L 69.960938 73.480469 C 69.960938 58.980469 76.867188 49.972656 87.984375 49.972656 Z M 87.984375 49.972656 " fill-opacity="1" fill-rule="nonzero"/></g><path fill="#2f3638" d="M 136.957031 102.125 C 163.242188 117.289062 184.476562 154.132812 184.394531 184.417969 C 184.324219 208.648438 170.628906 221.34375 151.695312 217.6875 C 151.398438 217.578125 151.128906 217.453125 150.878906 217.308594 C 149.113281 216.285156 148.449219 214.453125 148.449219 213.183594 C 148.457031 211.875 148.5 208.441406 148.542969 203.878906 C 150.324219 205.359375 151.917969 206.46875 153.339844 207.285156 C 162.480469 212.5625 164.597656 205.785156 164.597656 205.785156 C 166.785156 200.691406 169.910156 200.8125 169.910156 200.8125 C 174.054688 199.933594 169.96875 197.507812 169.609375 197.300781 C 169.589844 197.289062 169.582031 197.285156 169.582031 197.285156 C 164.816406 194.921875 162.289062 198.738281 162.289062 198.738281 C 159.898438 202.042969 156.699219 201.507812 153.867188 199.878906 C 151.628906 198.585938 149.617188 196.609375 148.421875 195.300781 C 148.003906 191.5 146.777344 188.378906 145.421875 186.226562 C 155.996094 190.941406 167.121094 192.644531 167.179688 171.628906 C 167.195312 165.632812 165.347656 159.660156 162.324219 154.082031 C 162.808594 152.960938 164.457031 148.34375 161.894531 139.292969 C 161.894531 139.292969 161.550781 138.964844 160.832031 138.550781 C 159.105469 137.554688 155.222656 136.054688 148.789062 137.367188 C 145.003906 133.96875 140.9375 131.003906 136.882812 128.648438 C 132.839844 126.332031 128.769531 124.601562 124.964844 123.621094 C 118.558594 114.90625 114.6875 111.929688 112.964844 110.9375 C 112.246094 110.527344 111.902344 110.453125 111.902344 110.453125 C 109.289062 116.519531 110.90625 123.023438 111.394531 124.707031 C 108.332031 126.773438 106.472656 130.605469 106.457031 136.605469 C 106.394531 157.667969 117.515625 168.730469 128.113281 176.195312 C 126.394531 176.898438 124.859375 179.371094 124.847656 184.484375 C 124.824219 191.832031 124.875 197.769531 124.871094 199.585938 C 124.867188 200.855469 124.210938 201.9375 122.445312 200.917969 C 122.183594 200.765625 121.894531 200.570312 121.585938 200.320312 C 102.722656 182.160156 89.15625 153.753906 89.222656 129.523438 C 89.308594 99.234375 110.683594 86.972656 136.957031 102.125 " fill-opacity="1" fill-rule="nonzero"/><path fill="#000000" d="M 91.703125 113.613281 C 98.058594 95.441406 115.933594 90 136.957031 102.125 C 163.242188 117.289062 184.476562 154.132812 184.394531 184.417969 C 184.324219 208.578125 170.707031 221.257812 151.859375 217.710938 L 148.460938 211.828125 C 148.480469 210.097656 148.511719 207.308594 148.542969 203.878906 C 150.324219 205.359375 151.917969 206.46875 153.339844 207.285156 C 162.480469 212.5625 164.597656 205.785156 164.597656 205.785156 C 166.785156 200.691406 169.910156 200.8125 169.910156 200.8125 C 174.054688 199.933594 169.96875 197.507812 169.609375 197.300781 C 169.589844 197.289062 169.582031 197.285156 169.582031 197.285156 C 164.816406 194.921875 162.285156 198.738281 162.285156 198.738281 C 159.898438 202.042969 156.699219 201.507812 153.867188 199.878906 C 151.628906 198.585938 149.617188 196.609375 148.421875 195.300781 C 148.003906 191.5 146.777344 188.378906 145.421875 186.222656 C 155.996094 190.941406 167.121094 192.644531 167.179688 171.628906 C 167.195312 165.632812 165.347656 159.660156 162.324219 154.082031 C 162.808594 152.960938 164.457031 148.34375 161.894531 139.292969 C 161.894531 139.292969 161.550781 138.964844 160.832031 138.550781 C 159.105469 137.554688 155.222656 136.054688 148.789062 137.367188 C 145.003906 133.96875 140.9375 131.003906 136.882812 128.648438 C 132.839844 126.332031 128.769531 124.601562 124.964844 123.621094 C 118.558594 114.90625 114.6875 111.929688 112.964844 110.9375 C 112.246094 110.527344 111.902344 110.453125 111.902344 110.453125 C 109.289062 116.519531 110.90625 123.023438 111.394531 124.707031 C 108.332031 126.773438 106.472656 130.605469 106.457031 136.605469 C 106.453125 137.523438 106.5 138.398438 106.539062 139.28125 Z M 91.703125 113.613281 " fill-opacity="1" fill-rule="nonzero"/><path fill="#000000" d="M 128.113281 176.191406 C 128.050781 176.21875 127.992188 176.261719 127.929688 176.296875 L 127.695312 175.890625 C 127.832031 175.988281 127.972656 176.09375 128.113281 176.191406 Z M 128.113281 176.191406 " fill-opacity="1" fill-rule="nonzero"/></svg>